# 3ds Max Wavefront OBJ Exporter v0.97b - (c)2007 guruware
# File Created: 17.08.2023 15:25:44

mtllib x.mtl

#
# object Text001
#

v  -22.2362 -0.0000 -20.1732
v  -22.9279 -0.0000 -21.3785
v  -23.4939 -0.0000 -22.5271
v  -23.9341 0.0000 -23.6188
v  -24.2485 0.0000 -24.6538
v  -24.4371 0.0000 -25.6319
v  -24.5000 0.0000 -26.5531
v  -24.4694 0.0000 -27.2871
v  -24.3777 0.0000 -27.9695
v  -24.2248 0.0000 -28.6001
v  -24.0107 0.0000 -29.1791
v  -23.7355 0.0000 -29.7065
v  -23.3991 0.0000 -30.1822
v  -23.0016 0.0000 -30.6063
v  -22.5575 0.0000 -30.9760
v  -22.0817 0.0000 -31.2889
v  -21.5740 0.0000 -31.5449
v  -21.0345 0.0000 -31.7440
v  -20.4631 0.0000 -31.8862
v  -19.8600 0.0000 -31.9716
v  -19.2250 0.0000 -32.0000
v  -18.8105 0.0000 -31.9905
v  -18.4115 0.0000 -31.9621
v  -18.0281 0.0000 -31.9146
v  -17.6602 0.0000 -31.8482
v  -17.3079 0.0000 -31.7628
v  -16.9712 0.0000 -31.6585
v  -16.6500 0.0000 -31.5352
v  -16.3426 0.0000 -31.3954
v  -16.0473 0.0000 -31.2419
v  -15.7639 0.0000 -31.0746
v  -15.4926 0.0000 -30.8934
v  -15.2333 0.0000 -30.6985
v  -14.9860 0.0000 -30.4897
v  -14.7508 0.0000 -30.2672
v  -14.5263 0.0000 -30.0369
v  -14.3113 0.0000 -29.8049
v  -14.1058 0.0000 -29.5712
v  -13.9098 0.0000 -29.3358
v  -13.7234 0.0000 -29.0987
v  -13.5464 0.0000 -28.8600
v  -13.3789 0.0000 -28.6195
v  -11.4594 0.0000 -25.6625
v  0.1062 -0.0000 -8.0000
v  10.9937 0.0000 -25.1547
v  13.8219 0.0000 -29.4227
v  14.0483 0.0000 -29.7294
v  14.2937 0.0000 -30.0214
v  14.5581 0.0000 -30.2987
v  14.8415 0.0000 -30.5613
v  15.1439 0.0000 -30.8092
v  15.4652 0.0000 -31.0424
v  15.8055 0.0000 -31.2609
v  16.1664 0.0000 -31.4570
v  16.5497 0.0000 -31.6229
v  16.9554 0.0000 -31.7587
v  17.3834 0.0000 -31.8643
v  17.8338 0.0000 -31.9397
v  18.3065 0.0000 -31.9849
v  18.8016 0.0000 -32.0000
v  19.2652 0.0000 -31.9853
v  19.7150 0.0000 -31.9414
v  20.1510 0.0000 -31.8681
v  20.5732 0.0000 -31.7656
v  20.9816 0.0000 -31.6337
v  21.3762 0.0000 -31.4725
v  21.7570 0.0000 -31.2820
v  22.1188 0.0000 -31.0666
v  22.4565 0.0000 -30.8304
v  22.7701 0.0000 -30.5736
v  23.0595 0.0000 -30.2962
v  23.3247 0.0000 -29.9981
v  23.5658 0.0000 -29.6793
v  23.7828 0.0000 -29.3398
v  23.9731 0.0000 -28.9849
v  24.1341 0.0000 -28.6196
v  24.2658 0.0000 -28.2439
v  24.3683 0.0000 -27.8578
v  24.4415 0.0000 -27.4614
v  24.4854 0.0000 -27.0546
v  24.5000 0.0000 -26.6375
v  24.4836 0.0000 -26.1872
v  24.4346 0.0000 -25.7291
v  24.3528 0.0000 -25.2633
v  24.2383 0.0000 -24.7898
v  24.0910 0.0000 -24.3085
v  23.9111 0.0000 -23.8195
v  23.6984 0.0000 -23.3227
v  23.4496 0.0000 -22.8035
v  23.1611 -0.0000 -22.2473
v  22.8329 -0.0000 -21.6541
v  22.4650 -0.0000 -21.0238
v  22.0575 -0.0000 -20.3565
v  21.6103 -0.0000 -19.6522
v  21.1234 -0.0000 -18.9109
v  7.9984 -0.0000 1.3141
v  20.1953 -0.0000 19.5484
v  21.0576 -0.0000 20.8941
v  21.7871 -0.0000 22.1570
v  22.3841 -0.0000 23.3371
v  22.8484 -0.0000 24.4344
v  23.1800 -0.0000 25.4489
v  23.3790 -0.0000 26.3807
v  23.4453 -0.0000 27.2297
v  23.4147 -0.0000 27.7738
v  23.3230 -0.0000 28.2964
v  23.1701 -0.0000 28.7974
v  22.9560 -0.0000 29.2769
v  22.6808 -0.0000 29.7348
v  22.3444 -0.0000 30.1712
v  21.9469 -0.0000 30.5859
v  21.5011 -0.0000 30.9611
v  21.0200 -0.0000 31.2785
v  20.5035 -0.0000 31.5383
v  19.9517 -0.0000 31.7403
v  19.3646 -0.0000 31.8846
v  18.7422 -0.0000 31.9711
v  18.0844 -0.0000 32.0000
v  17.7172 -0.0000 31.9909
v  17.3628 -0.0000 31.9638
v  17.0214 -0.0000 31.9185
v  16.6928 -0.0000 31.8551
v  16.3771 -0.0000 31.7736
v  16.0743 -0.0000 31.6740
v  15.7844 -0.0000 31.5562
v  15.5048 -0.0000 31.4204
v  15.2330 -0.0000 31.2665
v  14.9689 -0.0000 31.0945
v  14.7127 -0.0000 30.9045
v  14.4642 -0.0000 30.6963
v  14.2235 -0.0000 30.4701
v  13.9906 -0.0000 30.2258
v  13.7603 -0.0000 29.9629
v  13.5274 -0.0000 29.6811
v  13.2918 -0.0000 29.3804
v  13.0536 -0.0000 29.0606
v  12.8128 -0.0000 28.7219
v  12.5695 -0.0000 28.3642
v  12.3234 -0.0000 27.9875
v  10.2344 -0.0000 24.7359
v  0.3172 -0.0000 9.7000
v  -8.9688 -0.0000 24.7359
v  -9.6816 -0.0000 25.8767
v  -10.3488 -0.0000 26.9097
v  -10.9703 -0.0000 27.8350
v  -11.5460 -0.0000 28.6525
v  -12.0761 -0.0000 29.3623
v  -12.5605 -0.0000 29.9643
v  -12.9992 -0.0000 30.4586
v  -13.4388 -0.0000 30.8675
v  -13.9257 -0.0000 31.2136
v  -14.4601 -0.0000 31.4967
v  -15.0419 -0.0000 31.7169
v  -15.6712 -0.0000 31.8742
v  -16.3478 -0.0000 31.9685
v  -17.0719 -0.0000 32.0000
v  -17.7086 -0.0000 31.9711
v  -18.3169 -0.0000 31.8846
v  -18.8968 -0.0000 31.7403
v  -19.4484 -0.0000 31.5383
v  -19.9716 -0.0000 31.2785
v  -20.4664 -0.0000 30.9611
v  -20.9328 -0.0000 30.5859
v  -21.3527 -0.0000 30.1746
v  -21.7081 -0.0000 29.7487
v  -21.9988 -0.0000 29.3082
v  -22.2249 -0.0000 28.8530
v  -22.3864 -0.0000 28.3833
v  -22.4833 -0.0000 27.8989
v  -22.5156 -0.0000 27.4000
v  -22.4988 -0.0000 26.9024
v  -22.4485 -0.0000 26.3987
v  -22.3645 -0.0000 25.8891
v  -22.2470 -0.0000 25.3735
v  -22.0959 -0.0000 24.8519
v  -21.9112 -0.0000 24.3242
v  -21.6930 -0.0000 23.7906
v  -21.4411 -0.0000 23.2389
v  -21.1557 -0.0000 22.6571
v  -20.8367 -0.0000 22.0451
v  -20.4842 -0.0000 21.4029
v  -20.0980 -0.0000 20.7305
v  -19.6783 -0.0000 20.0280
v  -19.2250 -0.0000 19.2953
v  -7.5766 -0.0000 1.3141
v  -21.4188 -0.0000 -18.9109
# 186 vertices

vn 0.0000 -1.0000 -0.0000
vn 0.0000 -1.0000 -0.0000
vn 0.0000 -1.0000 -0.0000
vn 0.0000 -1.0000 -0.0000
vn 0.0000 -1.0000 -0.0000
vn 0.0000 -1.0000 -0.0000
vn 0.0000 -1.0000 -0.0000
vn 0.0000 -1.0000 -0.0000
vn 0.0000 -1.0000 -0.0000
vn 0.0000 -1.0000 -0.0000
vn 0.0000 -1.0000 -0.0000
vn 0.0000 -1.0000 -0.0000
vn 0.0000 -1.0000 -0.0000
vn 0.0000 -1.0000 -0.0000
vn 0.0000 -1.0000 -0.0000
vn 0.0000 -1.0000 -0.0000
vn 0.0000 -1.0000 -0.0000
vn 0.0000 -1.0000 -0.0000
vn 0.0000 -1.0000 -0.0000
vn 0.0000 -1.0000 -0.0000
vn 0.0000 -1.0000 -0.0000
vn 0.0000 -1.0000 -0.0000
vn 0.0000 -1.0000 -0.0000
vn 0.0000 -1.0000 -0.0000
vn 0.0000 -1.0000 -0.0000
vn 0.0000 -1.0000 -0.0000
vn 0.0000 -1.0000 -0.0000
vn 0.0000 -1.0000 -0.0000
vn 0.0000 -1.0000 -0.0000
vn 0.0000 -1.0000 -0.0000
vn 0.0000 -1.0000 -0.0000
vn 0.0000 -1.0000 -0.0000
vn 0.0000 -1.0000 -0.0000
vn 0.0000 -1.0000 -0.0000
vn 0.0000 -1.0000 -0.0000
vn 0.0000 -1.0000 -0.0000
vn 0.0000 -1.0000 -0.0000
vn 0.0000 -1.0000 -0.0000
vn 0.0000 -1.0000 -0.0000
vn 0.0000 -1.0000 -0.0000
vn 0.0000 -1.0000 -0.0000
vn 0.0000 -1.0000 -0.0000
vn 0.0000 -1.0000 -0.0000
vn 0.0000 -1.0000 -0.0000
vn 0.0000 -1.0000 -0.0000
vn 0.0000 -1.0000 -0.0000
vn 0.0000 -1.0000 -0.0000
vn 0.0000 -1.0000 -0.0000
vn 0.0000 -1.0000 -0.0000
vn 0.0000 -1.0000 -0.0000
vn 0.0000 -1.0000 -0.0000
vn 0.0000 -1.0000 -0.0000
vn 0.0000 -1.0000 -0.0000
vn 0.0000 -1.0000 -0.0000
vn 0.0000 -1.0000 -0.0000
vn 0.0000 -1.0000 -0.0000
vn 0.0000 -1.0000 -0.0000
vn 0.0000 -1.0000 -0.0000
vn 0.0000 -1.0000 -0.0000
vn 0.0000 -1.0000 -0.0000
vn 0.0000 -1.0000 -0.0000
vn 0.0000 -1.0000 -0.0000
vn 0.0000 -1.0000 -0.0000
vn 0.0000 -1.0000 -0.0000
vn 0.0000 -1.0000 -0.0000
vn 0.0000 -1.0000 -0.0000
vn 0.0000 -1.0000 -0.0000
vn 0.0000 -1.0000 -0.0000
vn 0.0000 -1.0000 -0.0000
vn 0.0000 -1.0000 -0.0000
vn 0.0000 -1.0000 -0.0000
vn 0.0000 -1.0000 -0.0000
vn 0.0000 -1.0000 -0.0000
vn 0.0000 -1.0000 -0.0000
vn 0.0000 -1.0000 -0.0000
vn 0.0000 -1.0000 -0.0000
vn 0.0000 -1.0000 -0.0000
vn 0.0000 -1.0000 -0.0000
vn 0.0000 -1.0000 -0.0000
vn 0.0000 -1.0000 -0.0000
vn 0.0000 -1.0000 -0.0000
vn 0.0000 -1.0000 -0.0000
vn 0.0000 -1.0000 -0.0000
vn 0.0000 -1.0000 -0.0000
vn 0.0000 -1.0000 -0.0000
vn 0.0000 -1.0000 -0.0000
vn 0.0000 -1.0000 -0.0000
vn 0.0000 -1.0000 -0.0000
vn 0.0000 -1.0000 -0.0000
vn 0.0000 -1.0000 -0.0000
vn 0.0000 -1.0000 -0.0000
vn 0.0000 -1.0000 -0.0000
vn 0.0000 -1.0000 -0.0000
vn 0.0000 -1.0000 -0.0000
vn 0.0000 -1.0000 -0.0000
vn 0.0000 -1.0000 -0.0000
vn 0.0000 -1.0000 -0.0000
vn 0.0000 -1.0000 -0.0000
vn 0.0000 -1.0000 -0.0000
vn 0.0000 -1.0000 -0.0000
vn 0.0000 -1.0000 -0.0000
vn 0.0000 -1.0000 -0.0000
vn 0.0000 -1.0000 -0.0000
vn 0.0000 -1.0000 -0.0000
vn 0.0000 -1.0000 -0.0000
vn 0.0000 -1.0000 -0.0000
vn 0.0000 -1.0000 -0.0000
vn 0.0000 -1.0000 -0.0000
vn 0.0000 -1.0000 -0.0000
vn 0.0000 -1.0000 -0.0000
vn 0.0000 -1.0000 -0.0000
vn 0.0000 -1.0000 -0.0000
vn 0.0000 -1.0000 -0.0000
vn 0.0000 -1.0000 -0.0000
vn 0.0000 -1.0000 -0.0000
vn 0.0000 -1.0000 -0.0000
vn 0.0000 -1.0000 -0.0000
vn 0.0000 -1.0000 -0.0000
vn 0.0000 -1.0000 -0.0000
vn 0.0000 -1.0000 -0.0000
vn 0.0000 -1.0000 -0.0000
vn 0.0000 -1.0000 -0.0000
vn 0.0000 -1.0000 -0.0000
vn 0.0000 -1.0000 -0.0000
vn 0.0000 -1.0000 -0.0000
vn 0.0000 -1.0000 -0.0000
vn 0.0000 -1.0000 -0.0000
vn 0.0000 -1.0000 -0.0000
vn 0.0000 -1.0000 -0.0000
vn 0.0000 -1.0000 -0.0000
vn 0.0000 -1.0000 -0.0000
vn 0.0000 -1.0000 -0.0000
vn 0.0000 -1.0000 -0.0000
vn 0.0000 -1.0000 -0.0000
vn 0.0000 -1.0000 -0.0000
vn 0.0000 -1.0000 -0.0000
vn 0.0000 -1.0000 -0.0000
vn 0.0000 -1.0000 -0.0000
vn 0.0000 -1.0000 -0.0000
vn 0.0000 -1.0000 -0.0000
vn 0.0000 -1.0000 -0.0000
vn 0.0000 -1.0000 -0.0000
vn 0.0000 -1.0000 -0.0000
vn 0.0000 -1.0000 -0.0000
vn 0.0000 -1.0000 -0.0000
vn 0.0000 -1.0000 -0.0000
vn 0.0000 -1.0000 -0.0000
vn 0.0000 -1.0000 -0.0000
vn 0.0000 -1.0000 -0.0000
vn 0.0000 -1.0000 -0.0000
vn 0.0000 -1.0000 -0.0000
vn 0.0000 -1.0000 -0.0000
vn 0.0000 -1.0000 -0.0000
vn 0.0000 -1.0000 -0.0000
vn 0.0000 -1.0000 -0.0000
vn 0.0000 -1.0000 -0.0000
vn 0.0000 -1.0000 -0.0000
vn 0.0000 -1.0000 -0.0000
vn 0.0000 -1.0000 -0.0000
vn 0.0000 -1.0000 -0.0000
vn 0.0000 -1.0000 -0.0000
vn 0.0000 -1.0000 -0.0000
vn 0.0000 -1.0000 -0.0000
vn 0.0000 -1.0000 -0.0000
vn 0.0000 -1.0000 -0.0000
vn 0.0000 -1.0000 -0.0000
vn 0.0000 -1.0000 -0.0000
vn 0.0000 -1.0000 -0.0000
vn 0.0000 -1.0000 -0.0000
vn 0.0000 -1.0000 -0.0000
vn 0.0000 -1.0000 -0.0000
vn 0.0000 -1.0000 -0.0000
vn 0.0000 -1.0000 -0.0000
vn 0.0000 -1.0000 -0.0000
vn 0.0000 -1.0000 -0.0000
vn 0.0000 -1.0000 -0.0000
vn 0.0000 -1.0000 -0.0000
vn 0.0000 -1.0000 -0.0000
vn 0.0000 -1.0000 -0.0000
vn 0.0000 -1.0000 -0.0000
vn 0.0000 -1.0000 -0.0000
vn 0.0000 -1.0000 -0.0000
vn 0.0000 -1.0000 -0.0000
vn 0.0000 -1.0000 -0.0000
vn 0.0000 -1.0000 -0.0000
vn 0.0000 -1.0000 -0.0000
vn 0.0000 -1.0000 -0.0000
vn 0.0000 -1.0000 -0.0000
vn 0.0000 -1.0000 -0.0000
vn 0.0000 -1.0000 -0.0000
vn 0.0000 -1.0000 -0.0000
vn 0.0000 -1.0000 -0.0000
vn 0.0000 -1.0000 -0.0000
vn 0.0000 -1.0000 -0.0000
vn 0.0000 -1.0000 -0.0000
vn 0.0000 -1.0000 -0.0000
vn 0.0000 -1.0000 -0.0000
vn 0.0000 -1.0000 -0.0000
vn 0.0000 -1.0000 -0.0000
vn 0.0000 -1.0000 -0.0000
vn 0.0000 -1.0000 -0.0000
vn 0.0000 -1.0000 -0.0000
vn 0.0000 -1.0000 -0.0000
vn 0.0000 -1.0000 -0.0000
vn 0.0000 -1.0000 -0.0000
vn 0.0000 -1.0000 -0.0000
vn 0.0000 -1.0000 -0.0000
vn 0.0000 -1.0000 -0.0000
vn 0.0000 -1.0000 -0.0000
vn 0.0000 -1.0000 -0.0000
vn 0.0000 -1.0000 -0.0000
vn 0.0000 -1.0000 -0.0000
vn 0.0000 -1.0000 -0.0000
vn 0.0000 -1.0000 -0.0000
vn 0.0000 -1.0000 -0.0000
vn 0.0000 -1.0000 -0.0000
vn 0.0000 -1.0000 -0.0000
vn 0.0000 -1.0000 -0.0000
vn 0.0000 -1.0000 -0.0000
vn 0.0000 -1.0000 -0.0000
vn 0.0000 -1.0000 -0.0000
vn 0.0000 -1.0000 -0.0000
vn 0.0000 -1.0000 -0.0000
vn 0.0000 -1.0000 -0.0000
vn 0.0000 -1.0000 -0.0000
vn 0.0000 -1.0000 -0.0000
vn 0.0000 -1.0000 -0.0000
vn 0.0000 -1.0000 -0.0000
vn 0.0000 -1.0000 -0.0000
vn 0.0000 -1.0000 -0.0000
vn 0.0000 -1.0000 -0.0000
vn 0.0000 -1.0000 -0.0000
vn 0.0000 -1.0000 -0.0000
vn 0.0000 -1.0000 -0.0000
vn 0.0000 -1.0000 -0.0000
vn 0.0000 -1.0000 -0.0000
vn 0.0000 -1.0000 -0.0000
vn 0.0000 -1.0000 -0.0000
vn 0.0000 -1.0000 -0.0000
vn 0.0000 -1.0000 -0.0000
vn 0.0000 -1.0000 -0.0000
vn 0.0000 -1.0000 -0.0000
vn 0.0000 -1.0000 -0.0000
vn 0.0000 -1.0000 -0.0000
vn 0.0000 -1.0000 -0.0000
vn 0.0000 -1.0000 -0.0000
vn 0.0000 -1.0000 -0.0000
vn 0.0000 -1.0000 -0.0000
vn 0.0000 -1.0000 -0.0000
vn 0.0000 -1.0000 -0.0000
vn 0.0000 -1.0000 -0.0000
vn 0.0000 -1.0000 -0.0000
vn 0.0000 -1.0000 -0.0000
vn 0.0000 -1.0000 -0.0000
vn 0.0000 -1.0000 -0.0000
vn 0.0000 -1.0000 -0.0000
vn 0.0000 -1.0000 -0.0000
vn 0.0000 -1.0000 -0.0000
vn 0.0000 -1.0000 -0.0000
vn 0.0000 -1.0000 -0.0000
vn 0.0000 -1.0000 -0.0000
vn 0.0000 -1.0000 -0.0000
vn 0.0000 -1.0000 -0.0000
vn 0.0000 -1.0000 -0.0000
vn 0.0000 -1.0000 -0.0000
vn 0.0000 -1.0000 -0.0000
vn 0.0000 -1.0000 -0.0000
vn 0.0000 -1.0000 -0.0000
vn 0.0000 -1.0000 -0.0000
vn 0.0000 -1.0000 -0.0000
vn 0.0000 -1.0000 -0.0000
vn 0.0000 -1.0000 -0.0000
vn 0.0000 -1.0000 -0.0000
vn 0.0000 -1.0000 -0.0000
vn 0.0000 -1.0000 -0.0000
vn 0.0000 -1.0000 -0.0000
vn 0.0000 -1.0000 -0.0000
vn 0.0000 -1.0000 -0.0000
vn 0.0000 -1.0000 -0.0000
vn 0.0000 -1.0000 -0.0000
vn 0.0000 -1.0000 -0.0000
vn 0.0000 -1.0000 -0.0000
vn 0.0000 -1.0000 -0.0000
vn 0.0000 -1.0000 -0.0000
vn 0.0000 -1.0000 -0.0000
vn 0.0000 -1.0000 -0.0000
vn 0.0000 -1.0000 -0.0000
vn 0.0000 -1.0000 -0.0000
vn 0.0000 -1.0000 -0.0000
vn 0.0000 -1.0000 -0.0000
vn 0.0000 -1.0000 -0.0000
vn 0.0000 -1.0000 -0.0000
vn 0.0000 -1.0000 -0.0000
vn 0.0000 -1.0000 -0.0000
vn 0.0000 -1.0000 -0.0000
vn 0.0000 -1.0000 -0.0000
vn 0.0000 -1.0000 -0.0000
vn 0.0000 -1.0000 -0.0000
vn 0.0000 -1.0000 -0.0000
vn 0.0000 -1.0000 -0.0000
vn 0.0000 -1.0000 -0.0000
vn 0.0000 -1.0000 -0.0000
vn 0.0000 -1.0000 -0.0000
vn 0.0000 -1.0000 -0.0000
vn 0.0000 -1.0000 -0.0000
vn 0.0000 -1.0000 -0.0000
vn 0.0000 -1.0000 -0.0000
vn 0.0000 -1.0000 -0.0000
vn 0.0000 -1.0000 -0.0000
vn 0.0000 -1.0000 -0.0000
vn 0.0000 -1.0000 -0.0000
vn 0.0000 -1.0000 -0.0000
vn 0.0000 -1.0000 -0.0000
vn 0.0000 -1.0000 -0.0000
vn 0.0000 -1.0000 -0.0000
vn 0.0000 -1.0000 -0.0000
vn 0.0000 -1.0000 -0.0000
vn 0.0000 -1.0000 -0.0000
vn 0.0000 -1.0000 -0.0000
vn 0.0000 -1.0000 -0.0000
vn 0.0000 -1.0000 -0.0000
vn 0.0000 -1.0000 -0.0000
vn 0.0000 -1.0000 -0.0000
vn 0.0000 -1.0000 -0.0000
vn 0.0000 -1.0000 -0.0000
vn 0.0000 -1.0000 -0.0000
vn 0.0000 -1.0000 -0.0000
vn 0.0000 -1.0000 -0.0000
vn 0.0000 -1.0000 -0.0000
vn 0.0000 -1.0000 -0.0000
vn 0.0000 -1.0000 -0.0000
vn 0.0000 -1.0000 -0.0000
vn 0.0000 -1.0000 -0.0000
vn 0.0000 -1.0000 -0.0000
vn 0.0000 -1.0000 -0.0000
vn 0.0000 -1.0000 -0.0000
vn 0.0000 -1.0000 -0.0000
vn 0.0000 -1.0000 -0.0000
vn 0.0000 -1.0000 -0.0000
vn 0.0000 -1.0000 -0.0000
vn 0.0000 -1.0000 -0.0000
vn 0.0000 -1.0000 -0.0000
vn 0.0000 -1.0000 -0.0000
vn 0.0000 -1.0000 -0.0000
vn 0.0000 -1.0000 -0.0000
vn 0.0000 -1.0000 -0.0000
vn 0.0000 -1.0000 -0.0000
vn 0.0000 -1.0000 -0.0000
vn 0.0000 -1.0000 -0.0000
vn 0.0000 -1.0000 -0.0000
vn 0.0000 -1.0000 -0.0000
vn 0.0000 -1.0000 -0.0000
vn 0.0000 -1.0000 -0.0000
vn 0.0000 -1.0000 -0.0000
vn 0.0000 -1.0000 -0.0000
vn 0.0000 -1.0000 -0.0000
vn 0.0000 -1.0000 -0.0000
vn 0.0000 -1.0000 -0.0000
vn 0.0000 -1.0000 -0.0000
vn 0.0000 -1.0000 -0.0000
vn 0.0000 -1.0000 -0.0000
vn 0.0000 -1.0000 -0.0000
vn 0.0000 -1.0000 -0.0000
vn 0.0000 -1.0000 -0.0000
vn 0.0000 -1.0000 -0.0000
vn 0.0000 -1.0000 -0.0000
vn 0.0000 -1.0000 -0.0000
vn 0.0000 -1.0000 -0.0000
vn 0.0000 -1.0000 -0.0000
vn 0.0000 -1.0000 -0.0000
vn 0.0000 -1.0000 -0.0000
vn 0.0000 -1.0000 -0.0000
vn 0.0000 -1.0000 -0.0000
vn 0.0000 -1.0000 -0.0000
vn 0.0000 -1.0000 -0.0000
vn 0.0000 -1.0000 -0.0000
vn 0.0000 -1.0000 -0.0000
vn 0.0000 -1.0000 -0.0000
vn 0.0000 -1.0000 -0.0000
vn 0.0000 -1.0000 -0.0000
vn 0.0000 -1.0000 -0.0000
vn 0.0000 -1.0000 -0.0000
vn 0.0000 -1.0000 -0.0000
vn 0.0000 -1.0000 -0.0000
vn 0.0000 -1.0000 -0.0000
vn 0.0000 -1.0000 -0.0000
vn 0.0000 -1.0000 -0.0000
vn 0.0000 -1.0000 -0.0000
vn 0.0000 -1.0000 -0.0000
vn 0.0000 -1.0000 -0.0000
vn 0.0000 -1.0000 -0.0000
vn 0.0000 -1.0000 -0.0000
vn 0.0000 -1.0000 -0.0000
vn 0.0000 -1.0000 -0.0000
vn 0.0000 -1.0000 -0.0000
vn 0.0000 -1.0000 -0.0000
vn 0.0000 -1.0000 -0.0000
vn 0.0000 -1.0000 -0.0000
vn 0.0000 -1.0000 -0.0000
vn 0.0000 -1.0000 -0.0000
vn 0.0000 -1.0000 -0.0000
vn 0.0000 -1.0000 -0.0000
vn 0.0000 -1.0000 -0.0000
vn 0.0000 -1.0000 -0.0000
vn 0.0000 -1.0000 -0.0000
vn 0.0000 -1.0000 -0.0000
vn 0.0000 -1.0000 -0.0000
vn 0.0000 -1.0000 -0.0000
vn 0.0000 -1.0000 -0.0000
vn 0.0000 -1.0000 -0.0000
vn 0.0000 -1.0000 -0.0000
vn 0.0000 -1.0000 -0.0000
vn 0.0000 -1.0000 -0.0000
vn 0.0000 -1.0000 -0.0000
vn 0.0000 -1.0000 -0.0000
vn 0.0000 -1.0000 -0.0000
vn 0.0000 -1.0000 -0.0000
vn 0.0000 -1.0000 -0.0000
vn 0.0000 -1.0000 -0.0000
vn 0.0000 -1.0000 -0.0000
vn 0.0000 -1.0000 -0.0000
vn 0.0000 -1.0000 -0.0000
vn 0.0000 -1.0000 -0.0000
vn 0.0000 -1.0000 -0.0000
vn 0.0000 -1.0000 -0.0000
vn 0.0000 -1.0000 -0.0000
vn 0.0000 -1.0000 -0.0000
vn 0.0000 -1.0000 -0.0000
vn 0.0000 -1.0000 -0.0000
vn 0.0000 -1.0000 -0.0000
vn 0.0000 -1.0000 -0.0000
vn 0.0000 -1.0000 -0.0000
vn 0.0000 -1.0000 -0.0000
vn 0.0000 -1.0000 -0.0000
vn 0.0000 -1.0000 -0.0000
vn 0.0000 -1.0000 -0.0000
vn 0.0000 -1.0000 -0.0000
vn 0.0000 -1.0000 -0.0000
vn 0.0000 -1.0000 -0.0000
vn 0.0000 -1.0000 -0.0000
vn 0.0000 -1.0000 -0.0000
vn 0.0000 -1.0000 -0.0000
vn 0.0000 -1.0000 -0.0000
vn 0.0000 -1.0000 -0.0000
vn 0.0000 -1.0000 -0.0000
vn 0.0000 -1.0000 -0.0000
vn 0.0000 -1.0000 -0.0000
vn 0.0000 -1.0000 -0.0000
vn 0.0000 -1.0000 -0.0000
vn 0.0000 -1.0000 -0.0000
vn 0.0000 -1.0000 -0.0000
vn 0.0000 -1.0000 -0.0000
vn 0.0000 -1.0000 -0.0000
vn 0.0000 -1.0000 -0.0000
vn 0.0000 -1.0000 -0.0000
vn 0.0000 -1.0000 -0.0000
vn 0.0000 -1.0000 -0.0000
vn 0.0000 -1.0000 -0.0000
vn 0.0000 -1.0000 -0.0000
vn 0.0000 -1.0000 -0.0000
vn 0.0000 -1.0000 -0.0000
vn 0.0000 -1.0000 -0.0000
vn 0.0000 -1.0000 -0.0000
vn 0.0000 -1.0000 -0.0000
vn 0.0000 -1.0000 -0.0000
vn 0.0000 -1.0000 -0.0000
vn 0.0000 -1.0000 -0.0000
vn 0.0000 -1.0000 -0.0000
vn 0.0000 -1.0000 -0.0000
vn 0.0000 -1.0000 -0.0000
vn 0.0000 -1.0000 -0.0000
vn 0.0000 -1.0000 -0.0000
vn 0.0000 -1.0000 -0.0000
vn 0.0000 -1.0000 -0.0000
vn 0.0000 -1.0000 -0.0000
vn 0.0000 -1.0000 -0.0000
vn 0.0000 -1.0000 -0.0000
vn 0.0000 -1.0000 -0.0000
vn 0.0000 -1.0000 -0.0000
vn 0.0000 -1.0000 -0.0000
vn 0.0000 -1.0000 -0.0000
vn 0.0000 -1.0000 -0.0000
vn 0.0000 -1.0000 -0.0000
vn 0.0000 -1.0000 -0.0000
vn 0.0000 -1.0000 -0.0000
vn 0.0000 -1.0000 -0.0000
vn 0.0000 -1.0000 -0.0000
vn 0.0000 -1.0000 -0.0000
vn 0.0000 -1.0000 -0.0000
vn 0.0000 -1.0000 -0.0000
vn 0.0000 -1.0000 -0.0000
vn 0.0000 -1.0000 -0.0000
vn 0.0000 -1.0000 -0.0000
vn 0.0000 -1.0000 -0.0000
vn 0.0000 -1.0000 -0.0000
vn 0.0000 -1.0000 -0.0000
vn 0.0000 -1.0000 -0.0000
vn 0.0000 -1.0000 -0.0000
vn 0.0000 -1.0000 -0.0000
vn 0.0000 -1.0000 -0.0000
vn 0.0000 -1.0000 -0.0000
vn 0.0000 -1.0000 -0.0000
vn 0.0000 -1.0000 -0.0000
vn 0.0000 -1.0000 -0.0000
vn 0.0000 -1.0000 -0.0000
vn 0.0000 -1.0000 -0.0000
vn 0.0000 -1.0000 -0.0000
vn 0.0000 -1.0000 -0.0000
vn 0.0000 -1.0000 -0.0000
vn 0.0000 -1.0000 -0.0000
vn 0.0000 -1.0000 -0.0000
vn 0.0000 -1.0000 -0.0000
vn 0.0000 -1.0000 -0.0000
vn 0.0000 -1.0000 -0.0000
vn 0.0000 -1.0000 -0.0000
vn 0.0000 -1.0000 -0.0000
vn 0.0000 -1.0000 -0.0000
vn 0.0000 -1.0000 -0.0000
vn 0.0000 -1.0000 -0.0000
vn 0.0000 -1.0000 -0.0000
vn 0.0000 -1.0000 -0.0000
vn 0.0000 -1.0000 -0.0000
vn 0.0000 -1.0000 -0.0000
vn 0.0000 -1.0000 -0.0000
vn 0.0000 -1.0000 -0.0000
vn 0.0000 -1.0000 -0.0000
vn 0.0000 -1.0000 -0.0000
vn 0.0000 -1.0000 -0.0000
vn 0.0000 -1.0000 -0.0000
vn 0.0000 -1.0000 -0.0000
vn 0.0000 -1.0000 -0.0000
vn 0.0000 -1.0000 -0.0000
vn 0.0000 -1.0000 -0.0000
vn 0.0000 -1.0000 -0.0000
vn 0.0000 -1.0000 -0.0000
vn 0.0000 -1.0000 -0.0000
vn 0.0000 -1.0000 -0.0000
vn 0.0000 -1.0000 -0.0000
vn 0.0000 -1.0000 -0.0000
vn 0.0000 -1.0000 -0.0000
vn 0.0000 -1.0000 -0.0000
vn 0.0000 -1.0000 -0.0000
vn 0.0000 -1.0000 -0.0000
vn 0.0000 -1.0000 -0.0000
vn 0.0000 -1.0000 -0.0000
vn 0.0000 -1.0000 -0.0000
vn 0.0000 -1.0000 -0.0000
vn 0.0000 -1.0000 -0.0000
vn 0.0000 -1.0000 -0.0000
vn 0.0000 -1.0000 -0.0000
vn 0.0000 -1.0000 -0.0000
vn 0.0000 -1.0000 -0.0000
# 552 vertex normals

g Text001
usemtl wire_225198087
s 1
f 167//1 168//2 169//3 
f 167//4 169//5 170//6 
f 12//7 13//8 14//9 
f 11//10 12//11 14//12 
f 10//13 11//14 14//15 
f 10//16 14//17 15//18 
f 10//19 15//20 16//21 
f 9//22 10//23 16//24 
f 9//25 16//26 17//27 
f 9//28 17//29 18//30 
f 9//31 18//32 19//33 
f 8//34 9//35 19//36 
f 8//37 19//38 20//39 
f 8//40 20//41 21//42 
f 7//43 8//44 21//45 
f 6//46 7//47 21//48 
f 6//49 21//50 22//51 
f 6//52 22//53 23//54 
f 5//55 6//56 23//57 
f 5//58 23//59 24//60 
f 5//61 24//62 25//63 
f 5//64 25//65 26//66 
f 5//67 26//68 27//69 
f 5//70 27//71 28//72 
f 5//73 28//74 29//75 
f 5//76 29//77 30//78 
f 5//79 30//80 31//81 
f 5//82 31//83 32//84 
f 5//85 32//86 33//87 
f 5//88 33//89 34//90 
f 5//91 34//92 35//93 
f 5//94 35//95 36//96 
f 4//97 5//98 36//99 
f 4//100 36//101 37//102 
f 4//103 37//104 38//105 
f 4//106 38//107 39//108 
f 3//109 4//110 39//111 
f 3//112 39//113 40//114 
f 3//115 40//116 41//117 
f 3//118 41//119 42//120 
f 3//121 42//122 43//123 
f 2//124 3//125 43//126 
f 1//127 2//128 43//129 
f 186//130 1//131 43//132 
f 186//133 43//134 44//135 
f 185//136 186//137 44//138 
f 71//139 72//140 73//141 
f 70//142 71//143 73//144 
f 70//145 73//146 74//147 
f 69//148 70//149 74//150 
f 69//151 74//152 75//153 
f 69//154 75//155 76//156 
f 69//157 76//158 77//159 
f 69//160 77//161 78//162 
f 69//163 78//164 79//165 
f 68//166 69//167 79//168 
f 68//169 79//170 80//171 
f 67//172 68//173 80//174 
f 67//175 80//176 81//177 
f 66//178 67//179 81//180 
f 65//181 66//182 81//183 
f 65//184 81//185 82//186 
f 64//187 65//188 82//189 
f 63//190 64//191 82//192 
f 63//193 82//194 83//195 
f 62//196 63//197 83//198 
f 61//199 62//200 83//201 
f 61//202 83//203 84//204 
f 60//205 61//206 84//207 
f 59//208 60//209 84//210 
f 58//211 59//212 84//213 
f 57//214 58//215 84//216 
f 56//217 57//218 84//219 
f 55//220 56//221 84//222 
f 54//223 55//224 84//225 
f 53//226 54//227 84//228 
f 52//229 53//230 84//231 
f 52//232 84//233 85//234 
f 51//235 52//236 85//237 
f 50//238 51//239 85//240 
f 49//241 50//242 85//243 
f 49//244 85//245 86//246 
f 48//247 49//248 86//249 
f 47//250 48//251 86//252 
f 46//253 47//254 86//255 
f 46//256 86//257 87//258 
f 46//259 87//260 88//261 
f 46//262 88//263 89//264 
f 46//265 89//266 90//267 
f 46//268 90//269 91//270 
f 46//271 91//272 92//273 
f 46//274 92//275 93//276 
f 46//277 93//278 94//279 
f 46//280 94//281 95//282 
f 45//283 46//284 95//285 
f 44//286 45//287 95//288 
f 185//289 44//290 95//291 
f 103//292 104//293 105//294 
f 103//295 105//296 106//297 
f 103//298 106//299 107//300 
f 103//301 107//302 108//303 
f 103//304 108//305 109//306 
f 103//307 109//308 110//309 
f 103//310 110//311 111//312 
f 103//313 111//314 112//315 
f 102//316 103//317 112//318 
f 102//319 112//320 113//321 
f 102//322 113//323 114//324 
f 102//325 114//326 115//327 
f 102//328 115//329 116//330 
f 102//331 116//332 117//333 
f 102//334 117//335 118//336 
f 101//337 102//338 118//339 
f 101//340 118//341 119//342 
f 101//343 119//344 120//345 
f 101//346 120//347 121//348 
f 101//349 121//350 122//351 
f 101//352 122//353 123//354 
f 101//355 123//356 124//357 
f 101//358 124//359 125//360 
f 101//361 125//362 126//363 
f 101//364 126//365 127//366 
f 101//367 127//368 128//369 
f 101//370 128//371 129//372 
f 101//373 129//374 130//375 
f 101//376 130//377 131//378 
f 101//379 131//380 132//381 
f 101//382 132//383 133//384 
f 101//385 133//386 134//387 
f 100//388 101//389 134//390 
f 100//391 134//392 135//393 
f 100//394 135//395 136//396 
f 100//397 136//398 137//399 
f 99//400 100//401 137//402 
f 99//403 137//404 138//405 
f 99//406 138//407 139//408 
f 99//409 139//410 140//411 
f 98//412 99//413 140//414 
f 97//415 98//416 140//417 
f 96//418 97//419 140//420 
f 96//421 140//422 141//423 
f 95//424 96//425 141//426 
f 185//427 95//428 141//429 
f 185//430 141//431 142//432 
f 184//433 185//434 142//435 
f 184//436 142//437 143//438 
f 183//439 184//440 143//441 
f 182//442 183//443 143//444 
f 182//445 143//446 144//447 
f 181//448 182//449 144//450 
f 181//451 144//452 145//453 
f 180//454 181//455 145//456 
f 179//457 180//458 145//459 
f 179//460 145//461 146//462 
f 178//463 179//464 146//465 
f 178//466 146//467 147//468 
f 177//469 178//470 147//471 
f 176//472 177//473 147//474 
f 176//475 147//476 148//477 
f 176//478 148//479 149//480 
f 176//481 149//482 150//483 
f 176//484 150//485 151//486 
f 176//487 151//488 152//489 
f 176//490 152//491 153//492 
f 176//493 153//494 154//495 
f 175//496 176//497 154//498 
f 175//499 154//500 155//501 
f 174//502 175//503 155//504 
f 174//505 155//506 156//507 
f 174//508 156//509 157//510 
f 173//511 174//512 157//513 
f 173//514 157//515 158//516 
f 173//517 158//518 159//519 
f 173//520 159//521 160//522 
f 172//523 173//524 160//525 
f 172//526 160//527 161//528 
f 172//529 161//530 162//531 
f 172//532 162//533 163//534 
f 171//535 172//536 163//537 
f 171//538 163//539 164//540 
f 171//541 164//542 165//543 
f 170//544 171//545 165//546 
f 170//547 165//548 166//549 
f 167//550 170//551 166//552 
# 184 faces

