# 3ds Max Wavefront OBJ Exporter v0.97b - (c)2007 guruware
# File Created: 17.08.2023 15:31:04

mtllib y.mtl

#
# object Object001
#

v  -6.3624 0.0000 -25.4279
v  -6.2568 0.0000 -26.4145
v  -6.0807 0.0000 -27.3194
v  -5.8341 0.0000 -28.1425
v  -5.5172 0.0000 -28.8839
v  -5.1297 0.0000 -29.5434
v  -4.6719 0.0000 -30.1211
v  -4.1573 0.0000 -30.6196
v  -3.5998 0.0000 -31.0414
v  -2.9994 0.0000 -31.3865
v  -2.3559 0.0000 -31.6549
v  -1.6696 0.0000 -31.8466
v  -0.9402 0.0000 -31.9617
v  -0.1680 0.0000 -32.0000
v  0.5936 0.0000 -31.9612
v  1.3156 0.0000 -31.8449
v  1.9983 0.0000 -31.6510
v  2.6415 0.0000 -31.3796
v  3.2452 0.0000 -31.0306
v  3.8095 0.0000 -30.6041
v  4.3344 0.0000 -30.1000
v  4.8034 0.0000 -29.5175
v  5.2003 0.0000 -28.8559
v  5.5250 0.0000 -28.1150
v  5.7776 0.0000 -27.2949
v  5.9580 0.0000 -26.3956
v  6.0663 0.0000 -25.4171
v  6.1023 0.0000 -24.3594
v  6.1023 -0.0000 -4.7281
v  21.5852 -0.0000 19.0391
v  22.1164 -0.0000 19.8458
v  22.6011 -0.0000 20.6007
v  23.0393 -0.0000 21.3039
v  23.4311 -0.0000 21.9554
v  23.7763 -0.0000 22.5551
v  24.0751 -0.0000 23.1030
v  24.3273 -0.0000 23.5992
v  24.5400 -0.0000 24.0695
v  24.7199 -0.0000 24.5399
v  24.8672 -0.0000 25.0103
v  24.9817 -0.0000 25.4807
v  25.0635 -0.0000 25.9512
v  25.1126 -0.0000 26.4217
v  25.1289 -0.0000 26.8922
v  25.0966 -0.0000 27.4613
v  24.9998 -0.0000 28.0106
v  24.8383 -0.0000 28.5400
v  24.6123 -0.0000 29.0496
v  24.3218 -0.0000 29.5393
v  23.9666 -0.0000 30.0093
v  23.5469 -0.0000 30.4594
v  23.0789 -0.0000 30.8681
v  22.5791 -0.0000 31.2140
v  22.0475 -0.0000 31.4969
v  21.4840 -0.0000 31.7170
v  20.8886 -0.0000 31.8742
v  20.2614 -0.0000 31.9686
v  19.6023 -0.0000 32.0000
v  19.1779 -0.0000 31.9888
v  18.7724 -0.0000 31.9553
v  18.3858 -0.0000 31.8994
v  18.0182 -0.0000 31.8212
v  17.6695 -0.0000 31.7206
v  17.3397 -0.0000 31.5976
v  17.0289 -0.0000 31.4523
v  16.7314 -0.0000 31.2860
v  16.4417 -0.0000 31.0998
v  16.1597 -0.0000 30.8938
v  15.8855 -0.0000 30.6680
v  15.6191 -0.0000 30.4225
v  15.3603 -0.0000 30.1571
v  15.1094 -0.0000 29.8719
v  14.8653 -0.0000 29.5738
v  14.6272 -0.0000 29.2697
v  14.3952 -0.0000 28.9596
v  14.1692 -0.0000 28.6436
v  13.9492 -0.0000 28.3215
v  13.7353 -0.0000 27.9934
v  13.5273 -0.0000 27.6594
v  11.7555 -0.0000 24.7516
v  0.0836 -0.0000 6.0000
v  -11.4602 -0.0000 24.7516
v  -12.1924 -0.0000 25.9328
v  -12.8704 -0.0000 26.9963
v  -13.4942 -0.0000 27.9419
v  -14.0637 -0.0000 28.7697
v  -14.5790 -0.0000 29.4797
v  -15.0401 -0.0000 30.0718
v  -15.4469 -0.0000 30.5461
v  -15.8520 -0.0000 30.9318
v  -16.3078 -0.0000 31.2582
v  -16.8145 -0.0000 31.5253
v  -17.3720 -0.0000 31.7330
v  -17.9803 -0.0000 31.8813
v  -18.6394 -0.0000 31.9703
v  -19.3492 -0.0000 32.0000
v  -20.0324 -0.0000 31.9681
v  -20.6837 -0.0000 31.8725
v  -21.3032 -0.0000 31.7132
v  -21.8908 -0.0000 31.4901
v  -22.4466 -0.0000 31.2032
v  -22.9705 -0.0000 30.8526
v  -23.4625 -0.0000 30.4383
v  -23.9046 -0.0000 29.9800
v  -24.2787 -0.0000 29.4976
v  -24.5848 -0.0000 28.9910
v  -24.8228 -0.0000 28.4604
v  -24.9929 -0.0000 27.9055
v  -25.0949 -0.0000 27.3266
v  -25.1289 -0.0000 26.7234
v  -25.1121 -0.0000 26.3399
v  -25.0618 -0.0000 25.9374
v  -24.9778 -0.0000 25.5160
v  -24.8603 -0.0000 25.0757
v  -24.7092 -0.0000 24.6165
v  -24.5245 -0.0000 24.1384
v  -24.3063 -0.0000 23.6414
v  -24.0475 -0.0000 23.1065
v  -23.7415 -0.0000 22.5146
v  -23.3880 -0.0000 21.8658
v  -22.9872 -0.0000 21.1602
v  -22.5391 -0.0000 20.3976
v  -22.0436 -0.0000 19.5780
v  -21.5008 -0.0000 18.7016
v  -6.3977 -0.0000 -4.7281
v  -6.3977 0.0000 -24.3594
# 126 vertices

vn 0.0000 -1.0000 -0.0000
vn 0.0000 -1.0000 -0.0000
vn 0.0000 -1.0000 -0.0000
vn 0.0000 -1.0000 -0.0000
vn 0.0000 -1.0000 -0.0000
vn 0.0000 -1.0000 -0.0000
vn 0.0000 -1.0000 -0.0000
vn 0.0000 -1.0000 -0.0000
vn 0.0000 -1.0000 -0.0000
vn 0.0000 -1.0000 -0.0000
vn 0.0000 -1.0000 -0.0000
vn 0.0000 -1.0000 -0.0000
vn 0.0000 -1.0000 -0.0000
vn 0.0000 -1.0000 -0.0000
vn 0.0000 -1.0000 -0.0000
vn 0.0000 -1.0000 -0.0000
vn 0.0000 -1.0000 -0.0000
vn 0.0000 -1.0000 -0.0000
vn 0.0000 -1.0000 -0.0000
vn 0.0000 -1.0000 -0.0000
vn 0.0000 -1.0000 -0.0000
vn 0.0000 -1.0000 -0.0000
vn 0.0000 -1.0000 -0.0000
vn 0.0000 -1.0000 -0.0000
vn 0.0000 -1.0000 -0.0000
vn 0.0000 -1.0000 -0.0000
vn 0.0000 -1.0000 -0.0000
vn 0.0000 -1.0000 -0.0000
vn 0.0000 -1.0000 -0.0000
vn 0.0000 -1.0000 -0.0000
vn 0.0000 -1.0000 -0.0000
vn 0.0000 -1.0000 -0.0000
vn 0.0000 -1.0000 -0.0000
vn 0.0000 -1.0000 -0.0000
vn 0.0000 -1.0000 -0.0000
vn 0.0000 -1.0000 -0.0000
vn 0.0000 -1.0000 -0.0000
vn 0.0000 -1.0000 -0.0000
vn 0.0000 -1.0000 -0.0000
vn 0.0000 -1.0000 -0.0000
vn 0.0000 -1.0000 -0.0000
vn 0.0000 -1.0000 -0.0000
vn 0.0000 -1.0000 -0.0000
vn 0.0000 -1.0000 -0.0000
vn 0.0000 -1.0000 -0.0000
vn 0.0000 -1.0000 -0.0000
vn 0.0000 -1.0000 -0.0000
vn 0.0000 -1.0000 -0.0000
vn 0.0000 -1.0000 -0.0000
vn 0.0000 -1.0000 -0.0000
vn 0.0000 -1.0000 -0.0000
vn 0.0000 -1.0000 -0.0000
vn 0.0000 -1.0000 -0.0000
vn 0.0000 -1.0000 -0.0000
vn 0.0000 -1.0000 -0.0000
vn 0.0000 -1.0000 -0.0000
vn 0.0000 -1.0000 -0.0000
vn 0.0000 -1.0000 -0.0000
vn 0.0000 -1.0000 -0.0000
vn 0.0000 -1.0000 -0.0000
vn 0.0000 -1.0000 -0.0000
vn 0.0000 -1.0000 -0.0000
vn 0.0000 -1.0000 -0.0000
vn 0.0000 -1.0000 -0.0000
vn 0.0000 -1.0000 -0.0000
vn 0.0000 -1.0000 -0.0000
vn 0.0000 -1.0000 -0.0000
vn 0.0000 -1.0000 -0.0000
vn 0.0000 -1.0000 -0.0000
vn 0.0000 -1.0000 -0.0000
vn 0.0000 -1.0000 -0.0000
vn 0.0000 -1.0000 -0.0000
vn 0.0000 -1.0000 -0.0000
vn 0.0000 -1.0000 -0.0000
vn 0.0000 -1.0000 -0.0000
vn 0.0000 -1.0000 -0.0000
vn 0.0000 -1.0000 -0.0000
vn 0.0000 -1.0000 -0.0000
vn 0.0000 -1.0000 -0.0000
vn 0.0000 -1.0000 -0.0000
vn 0.0000 -1.0000 -0.0000
vn 0.0000 -1.0000 -0.0000
vn 0.0000 -1.0000 -0.0000
vn 0.0000 -1.0000 -0.0000
vn 0.0000 -1.0000 -0.0000
vn 0.0000 -1.0000 -0.0000
vn 0.0000 -1.0000 -0.0000
vn 0.0000 -1.0000 -0.0000
vn 0.0000 -1.0000 -0.0000
vn 0.0000 -1.0000 -0.0000
vn 0.0000 -1.0000 -0.0000
vn 0.0000 -1.0000 -0.0000
vn 0.0000 -1.0000 -0.0000
vn 0.0000 -1.0000 -0.0000
vn 0.0000 -1.0000 -0.0000
vn 0.0000 -1.0000 -0.0000
vn 0.0000 -1.0000 -0.0000
vn 0.0000 -1.0000 -0.0000
vn 0.0000 -1.0000 -0.0000
vn 0.0000 -1.0000 -0.0000
vn 0.0000 -1.0000 -0.0000
vn 0.0000 -1.0000 -0.0000
vn 0.0000 -1.0000 -0.0000
vn 0.0000 -1.0000 -0.0000
vn 0.0000 -1.0000 -0.0000
vn 0.0000 -1.0000 -0.0000
vn 0.0000 -1.0000 -0.0000
vn 0.0000 -1.0000 -0.0000
vn 0.0000 -1.0000 -0.0000
vn 0.0000 -1.0000 -0.0000
vn 0.0000 -1.0000 -0.0000
vn 0.0000 -1.0000 -0.0000
vn 0.0000 -1.0000 -0.0000
vn 0.0000 -1.0000 -0.0000
vn 0.0000 -1.0000 -0.0000
vn 0.0000 -1.0000 -0.0000
vn 0.0000 -1.0000 -0.0000
vn 0.0000 -1.0000 -0.0000
vn 0.0000 -1.0000 -0.0000
vn 0.0000 -1.0000 -0.0000
vn 0.0000 -1.0000 -0.0000
vn 0.0000 -1.0000 -0.0000
vn 0.0000 -1.0000 -0.0000
vn 0.0000 -1.0000 -0.0000
vn 0.0000 -1.0000 -0.0000
vn 0.0000 -1.0000 -0.0000
vn 0.0000 -1.0000 -0.0000
vn 0.0000 -1.0000 -0.0000
vn 0.0000 -1.0000 -0.0000
vn 0.0000 -1.0000 -0.0000
vn 0.0000 -1.0000 -0.0000
vn 0.0000 -1.0000 -0.0000
vn 0.0000 -1.0000 -0.0000
vn 0.0000 -1.0000 -0.0000
vn 0.0000 -1.0000 -0.0000
vn 0.0000 -1.0000 -0.0000
vn 0.0000 -1.0000 -0.0000
vn 0.0000 -1.0000 -0.0000
vn 0.0000 -1.0000 -0.0000
vn 0.0000 -1.0000 -0.0000
vn 0.0000 -1.0000 -0.0000
vn 0.0000 -1.0000 -0.0000
vn 0.0000 -1.0000 -0.0000
vn 0.0000 -1.0000 -0.0000
vn 0.0000 -1.0000 -0.0000
vn 0.0000 -1.0000 -0.0000
vn 0.0000 -1.0000 -0.0000
vn 0.0000 -1.0000 -0.0000
vn 0.0000 -1.0000 -0.0000
vn 0.0000 -1.0000 -0.0000
vn 0.0000 -1.0000 -0.0000
vn 0.0000 -1.0000 -0.0000
vn 0.0000 -1.0000 -0.0000
vn 0.0000 -1.0000 -0.0000
vn 0.0000 -1.0000 -0.0000
vn 0.0000 -1.0000 -0.0000
vn 0.0000 -1.0000 -0.0000
vn 0.0000 -1.0000 -0.0000
vn 0.0000 -1.0000 -0.0000
vn 0.0000 -1.0000 -0.0000
vn 0.0000 -1.0000 -0.0000
vn 0.0000 -1.0000 -0.0000
vn 0.0000 -1.0000 -0.0000
vn 0.0000 -1.0000 -0.0000
vn 0.0000 -1.0000 -0.0000
vn 0.0000 -1.0000 -0.0000
vn 0.0000 -1.0000 -0.0000
vn 0.0000 -1.0000 -0.0000
vn 0.0000 -1.0000 -0.0000
vn 0.0000 -1.0000 -0.0000
vn 0.0000 -1.0000 -0.0000
vn 0.0000 -1.0000 -0.0000
vn 0.0000 -1.0000 -0.0000
vn 0.0000 -1.0000 -0.0000
vn 0.0000 -1.0000 -0.0000
vn 0.0000 -1.0000 -0.0000
vn 0.0000 -1.0000 -0.0000
vn 0.0000 -1.0000 -0.0000
vn 0.0000 -1.0000 -0.0000
vn 0.0000 -1.0000 -0.0000
vn 0.0000 -1.0000 -0.0000
vn 0.0000 -1.0000 -0.0000
vn 0.0000 -1.0000 -0.0000
vn 0.0000 -1.0000 -0.0000
vn 0.0000 -1.0000 -0.0000
vn 0.0000 -1.0000 -0.0000
vn 0.0000 -1.0000 -0.0000
vn 0.0000 -1.0000 -0.0000
vn 0.0000 -1.0000 -0.0000
vn 0.0000 -1.0000 -0.0000
vn 0.0000 -1.0000 -0.0000
vn 0.0000 -1.0000 -0.0000
vn 0.0000 -1.0000 -0.0000
vn 0.0000 -1.0000 -0.0000
vn 0.0000 -1.0000 -0.0000
vn 0.0000 -1.0000 -0.0000
vn 0.0000 -1.0000 -0.0000
vn 0.0000 -1.0000 -0.0000
vn 0.0000 -1.0000 -0.0000
vn 0.0000 -1.0000 -0.0000
vn 0.0000 -1.0000 -0.0000
vn 0.0000 -1.0000 -0.0000
vn 0.0000 -1.0000 -0.0000
vn 0.0000 -1.0000 -0.0000
vn 0.0000 -1.0000 -0.0000
vn 0.0000 -1.0000 -0.0000
vn 0.0000 -1.0000 -0.0000
vn 0.0000 -1.0000 -0.0000
vn 0.0000 -1.0000 -0.0000
vn 0.0000 -1.0000 -0.0000
vn 0.0000 -1.0000 -0.0000
vn 0.0000 -1.0000 -0.0000
vn 0.0000 -1.0000 -0.0000
vn 0.0000 -1.0000 -0.0000
vn 0.0000 -1.0000 -0.0000
vn 0.0000 -1.0000 -0.0000
vn 0.0000 -1.0000 -0.0000
vn 0.0000 -1.0000 -0.0000
vn 0.0000 -1.0000 -0.0000
vn 0.0000 -1.0000 -0.0000
vn 0.0000 -1.0000 -0.0000
vn 0.0000 -1.0000 -0.0000
vn 0.0000 -1.0000 -0.0000
vn 0.0000 -1.0000 -0.0000
vn 0.0000 -1.0000 -0.0000
vn 0.0000 -1.0000 -0.0000
vn 0.0000 -1.0000 -0.0000
vn 0.0000 -1.0000 -0.0000
vn 0.0000 -1.0000 -0.0000
vn 0.0000 -1.0000 -0.0000
vn 0.0000 -1.0000 -0.0000
vn 0.0000 -1.0000 -0.0000
vn 0.0000 -1.0000 -0.0000
vn 0.0000 -1.0000 -0.0000
vn 0.0000 -1.0000 -0.0000
vn 0.0000 -1.0000 -0.0000
vn 0.0000 -1.0000 -0.0000
vn 0.0000 -1.0000 -0.0000
vn 0.0000 -1.0000 -0.0000
vn 0.0000 -1.0000 -0.0000
vn 0.0000 -1.0000 -0.0000
vn 0.0000 -1.0000 -0.0000
vn 0.0000 -1.0000 -0.0000
vn 0.0000 -1.0000 -0.0000
vn 0.0000 -1.0000 -0.0000
vn 0.0000 -1.0000 -0.0000
vn 0.0000 -1.0000 -0.0000
vn 0.0000 -1.0000 -0.0000
vn 0.0000 -1.0000 -0.0000
vn 0.0000 -1.0000 -0.0000
vn 0.0000 -1.0000 -0.0000
vn 0.0000 -1.0000 -0.0000
vn 0.0000 -1.0000 -0.0000
vn 0.0000 -1.0000 -0.0000
vn 0.0000 -1.0000 -0.0000
vn 0.0000 -1.0000 -0.0000
vn 0.0000 -1.0000 -0.0000
vn 0.0000 -1.0000 -0.0000
vn 0.0000 -1.0000 -0.0000
vn 0.0000 -1.0000 -0.0000
vn 0.0000 -1.0000 -0.0000
vn 0.0000 -1.0000 -0.0000
vn 0.0000 -1.0000 -0.0000
vn 0.0000 -1.0000 -0.0000
vn 0.0000 -1.0000 -0.0000
vn 0.0000 -1.0000 -0.0000
vn 0.0000 -1.0000 -0.0000
vn 0.0000 -1.0000 -0.0000
vn 0.0000 -1.0000 -0.0000
vn 0.0000 -1.0000 -0.0000
vn 0.0000 -1.0000 -0.0000
vn 0.0000 -1.0000 -0.0000
vn 0.0000 -1.0000 -0.0000
vn 0.0000 -1.0000 -0.0000
vn 0.0000 -1.0000 -0.0000
vn 0.0000 -1.0000 -0.0000
vn 0.0000 -1.0000 -0.0000
vn 0.0000 -1.0000 -0.0000
vn 0.0000 -1.0000 -0.0000
vn 0.0000 -1.0000 -0.0000
vn 0.0000 -1.0000 -0.0000
vn 0.0000 -1.0000 -0.0000
vn 0.0000 -1.0000 -0.0000
vn 0.0000 -1.0000 -0.0000
vn 0.0000 -1.0000 -0.0000
vn 0.0000 -1.0000 -0.0000
vn 0.0000 -1.0000 -0.0000
vn 0.0000 -1.0000 -0.0000
vn 0.0000 -1.0000 -0.0000
vn 0.0000 -1.0000 -0.0000
vn 0.0000 -1.0000 -0.0000
vn 0.0000 -1.0000 -0.0000
vn 0.0000 -1.0000 -0.0000
vn 0.0000 -1.0000 -0.0000
vn 0.0000 -1.0000 -0.0000
vn 0.0000 -1.0000 -0.0000
vn 0.0000 -1.0000 -0.0000
vn 0.0000 -1.0000 -0.0000
vn 0.0000 -1.0000 -0.0000
vn 0.0000 -1.0000 -0.0000
vn 0.0000 -1.0000 -0.0000
vn 0.0000 -1.0000 -0.0000
vn 0.0000 -1.0000 -0.0000
vn 0.0000 -1.0000 -0.0000
vn 0.0000 -1.0000 -0.0000
vn 0.0000 -1.0000 -0.0000
vn 0.0000 -1.0000 -0.0000
vn 0.0000 -1.0000 -0.0000
vn 0.0000 -1.0000 -0.0000
vn 0.0000 -1.0000 -0.0000
vn 0.0000 -1.0000 -0.0000
vn 0.0000 -1.0000 -0.0000
vn 0.0000 -1.0000 -0.0000
vn 0.0000 -1.0000 -0.0000
vn 0.0000 -1.0000 -0.0000
vn 0.0000 -1.0000 -0.0000
vn 0.0000 -1.0000 -0.0000
vn 0.0000 -1.0000 -0.0000
vn 0.0000 -1.0000 -0.0000
vn 0.0000 -1.0000 -0.0000
vn 0.0000 -1.0000 -0.0000
vn 0.0000 -1.0000 -0.0000
vn 0.0000 -1.0000 -0.0000
vn 0.0000 -1.0000 -0.0000
vn 0.0000 -1.0000 -0.0000
vn 0.0000 -1.0000 -0.0000
vn 0.0000 -1.0000 -0.0000
vn 0.0000 -1.0000 -0.0000
vn 0.0000 -1.0000 -0.0000
vn 0.0000 -1.0000 -0.0000
vn 0.0000 -1.0000 -0.0000
vn 0.0000 -1.0000 -0.0000
vn 0.0000 -1.0000 -0.0000
vn 0.0000 -1.0000 -0.0000
vn 0.0000 -1.0000 -0.0000
vn 0.0000 -1.0000 -0.0000
vn 0.0000 -1.0000 -0.0000
vn 0.0000 -1.0000 -0.0000
vn 0.0000 -1.0000 -0.0000
vn 0.0000 -1.0000 -0.0000
vn 0.0000 -1.0000 -0.0000
vn 0.0000 -1.0000 -0.0000
vn 0.0000 -1.0000 -0.0000
vn 0.0000 -1.0000 -0.0000
vn 0.0000 -1.0000 -0.0000
vn 0.0000 -1.0000 -0.0000
vn 0.0000 -1.0000 -0.0000
vn 0.0000 -1.0000 -0.0000
vn 0.0000 -1.0000 -0.0000
vn 0.0000 -1.0000 -0.0000
vn 0.0000 -1.0000 -0.0000
vn 0.0000 -1.0000 -0.0000
vn 0.0000 -1.0000 -0.0000
vn 0.0000 -1.0000 -0.0000
vn 0.0000 -1.0000 -0.0000
vn 0.0000 -1.0000 -0.0000
vn 0.0000 -1.0000 -0.0000
vn 0.0000 -1.0000 -0.0000
vn 0.0000 -1.0000 -0.0000
vn 0.0000 -1.0000 -0.0000
vn 0.0000 -1.0000 -0.0000
vn 0.0000 -1.0000 -0.0000
vn 0.0000 -1.0000 -0.0000
vn 0.0000 -1.0000 -0.0000
vn 0.0000 -1.0000 -0.0000
vn 0.0000 -1.0000 -0.0000
vn 0.0000 -1.0000 -0.0000
vn 0.0000 -1.0000 -0.0000
vn 0.0000 -1.0000 -0.0000
vn 0.0000 -1.0000 -0.0000
vn 0.0000 -1.0000 -0.0000
vn 0.0000 -1.0000 -0.0000
# 372 vertex normals

g Object001
usemtl wire_225198087
s 1
f 21//1 22//2 23//3 
f 46//4 47//5 48//6 
f 45//7 46//8 48//9 
f 45//10 48//11 49//12 
f 44//13 45//14 49//15 
f 43//16 44//17 49//18 
f 43//19 49//20 50//21 
f 42//22 43//23 50//24 
f 42//25 50//26 51//27 
f 42//28 51//29 52//30 
f 42//31 52//32 53//33 
f 42//34 53//35 54//36 
f 42//37 54//38 55//39 
f 42//40 55//41 56//42 
f 41//43 42//44 56//45 
f 41//46 56//47 57//48 
f 41//49 57//50 58//51 
f 41//52 58//53 59//54 
f 41//55 59//56 60//57 
f 41//58 60//59 61//60 
f 41//61 61//62 62//63 
f 41//64 62//65 63//66 
f 41//67 63//68 64//69 
f 41//70 64//71 65//72 
f 41//73 65//74 66//75 
f 41//76 66//77 67//78 
f 41//79 67//80 68//81 
f 41//82 68//83 69//84 
f 40//85 41//86 69//87 
f 40//88 69//89 70//90 
f 40//91 70//92 71//93 
f 39//94 40//95 71//96 
f 39//97 71//98 72//99 
f 38//100 39//101 72//102 
f 38//103 72//104 73//105 
f 37//106 38//107 73//108 
f 37//109 73//110 74//111 
f 36//112 37//113 74//114 
f 36//115 74//116 75//117 
f 36//118 75//119 76//120 
f 35//121 36//122 76//123 
f 35//124 76//125 77//126 
f 35//127 77//128 78//129 
f 34//130 35//131 78//132 
f 34//133 78//134 79//135 
f 33//136 34//137 79//138 
f 32//139 33//140 79//141 
f 31//142 32//143 79//144 
f 30//145 31//146 79//147 
f 30//148 79//149 80//150 
f 29//151 30//152 80//153 
f 89//154 90//155 91//156 
f 89//157 91//158 92//159 
f 89//160 92//161 93//162 
f 89//163 93//164 94//165 
f 88//166 89//167 94//168 
f 88//169 94//170 95//171 
f 88//172 95//173 96//174 
f 87//175 88//176 96//177 
f 87//178 96//179 97//180 
f 87//181 97//182 98//183 
f 87//184 98//185 99//186 
f 87//187 99//188 100//189 
f 87//190 100//191 101//192 
f 87//193 101//194 102//195 
f 87//196 102//197 103//198 
f 87//199 103//200 104//201 
f 87//202 104//203 105//204 
f 87//205 105//206 106//207 
f 87//208 106//209 107//210 
f 87//211 107//212 108//213 
f 87//214 108//215 109//216 
f 87//217 109//218 110//219 
f 87//220 110//221 111//222 
f 87//223 111//224 112//225 
f 87//226 112//227 113//228 
f 87//229 113//230 114//231 
f 87//232 114//233 115//234 
f 87//235 115//236 116//237 
f 87//238 116//239 117//240 
f 86//241 87//242 117//243 
f 86//244 117//245 118//246 
f 86//247 118//248 119//249 
f 85//250 86//251 119//252 
f 85//253 119//254 120//255 
f 84//256 85//257 120//258 
f 84//259 120//260 121//261 
f 84//262 121//263 122//264 
f 83//265 84//266 122//267 
f 83//268 122//269 123//270 
f 82//271 83//272 123//273 
f 82//274 123//275 124//276 
f 82//277 124//278 125//279 
f 81//280 82//281 125//282 
f 81//283 125//284 126//285 
f 80//286 81//287 126//288 
f 80//289 126//290 1//291 
f 80//292 1//293 2//294 
f 80//295 2//296 3//297 
f 80//298 3//299 4//300 
f 80//301 4//302 5//303 
f 80//304 5//305 6//306 
f 80//307 6//308 7//309 
f 80//310 7//311 8//312 
f 80//313 8//314 9//315 
f 80//316 9//317 10//318 
f 80//319 10//320 11//321 
f 80//322 11//323 12//324 
f 80//325 12//326 13//327 
f 80//328 13//329 14//330 
f 80//331 14//332 15//333 
f 29//334 80//335 15//336 
f 28//337 29//338 15//339 
f 27//340 28//341 15//342 
f 26//343 27//344 15//345 
f 25//346 26//347 15//348 
f 24//349 25//350 15//351 
f 24//352 15//353 16//354 
f 24//355 16//356 17//357 
f 24//358 17//359 18//360 
f 24//361 18//362 19//363 
f 24//364 19//365 20//366 
f 23//367 24//368 20//369 
f 21//370 23//371 20//372 
# 124 faces

